<?xml version="1.0" encoding="utf-8"?>
<!-- Generator: Adobe Illustrator 18.1.1, SVG Export Plug-In . SVG Version: 6.00 Build 0)  -->
<svg version="1.1" id="Layer_1" xmlns="http://www.w3.org/2000/svg" xmlns:xlink="http://www.w3.org/1999/xlink" x="0px" y="0px"
	 viewBox="0 0 134.7 107.9" enable-background="new 0 0 134.7 107.9" xml:space="preserve">
<path fill="#F05763" d="M120.1,97.5l2.7-3.6c19.5-25.7,14.5-62.4-11.2-82l0,0c-19.4-14.7-45-15.5-64.8-4
	c-6.5,3.8-12.4,8.9-17.2,15.2L5.1,55.3"/>
<path fill="#EC2A39" d="M114.8,107.3L5.7,64.8c-4.6-1.8-6.9-7-5.1-11.7l0,0c1.8-4.6,7-6.9,11.7-5.1l109,42.4c4.6,1.8,6.9,7,5.1,11.7
	v0C124.6,106.8,119.4,109.1,114.8,107.3z"/>
<circle fill="#EC2A39" cx="111.6" cy="11.5" r="10.6"/>
</svg>
