<?xml version="1.0" encoding="utf-8"?>
<!-- Generator: Adobe Illustrator 18.1.1, SVG Export Plug-In . SVG Version: 6.00 Build 0)  -->
<svg version="1.1" id="Layer_1" xmlns="http://www.w3.org/2000/svg" xmlns:xlink="http://www.w3.org/1999/xlink" x="0px" y="0px"
	 viewBox="0 0 153.2 225.8" enable-background="new 0 0 153.2 225.8" xml:space="preserve">
<rect x="22.8" y="135.1" transform="matrix(0.9758 0.2189 -0.2189 0.9758 31.7508 -7.5264)" fill="#FFFFFF" width="54" height="9"/>
<rect x="22.2" y="171.6" transform="matrix(0.9673 -0.2535 0.2535 0.9673 -43.0245 18.2192)" fill="#FFFFFF" width="54" height="9"/>
<path fill="#FFE5B1" d="M89.3,221.1H45.8c-16,0-29-13-29-29v0c0-4.1,2.9-7.6,6.9-8.4l23.4-4.7c8.6-1.7,14.8-9.3,14.8-18v-7.7
	c0-7.7-5.4-14.4-13-15.9l-21.4-4.3c-6.2-1.2-10.6-6.6-10.6-12.9v-7.2l-9-3c-5.8-1.9-5.8-10.1,0-12l9-3V68.8
	c0-35.2,28.5-63.8,63.8-63.8h-0.8c34.8,0,63,28.2,63,63v99.5C142.8,197.1,118.9,221.1,89.3,221.1z"/>
<circle fill="#FFFFFF" cx="70.8" cy="77.1" r="18"/>
</svg>
