<?xml version="1.0" encoding="utf-8"?>
<!-- Generator: Adobe Illustrator 18.1.1, SVG Export Plug-In . SVG Version: 6.00 Build 0)  -->
<svg version="1.1" id="Layer_1" xmlns="http://www.w3.org/2000/svg" xmlns:xlink="http://www.w3.org/1999/xlink" x="0px" y="0px"
	 viewBox="0 0 112.4 48" enable-background="new 0 0 112.4 48" xml:space="preserve">
<path opacity="0.27" fill="#77CDD5" d="M68.7,46.5h-26c-5.2,0-9.5-4.3-9.5-9.5V24.5V11c0-5.2,4.3-9.5,9.5-9.5h26
	c5.2,0,9.5,4.3,9.5,9.5v13v13C78.2,42.2,73.9,46.5,68.7,46.5z"/>
<path fill="#2E2E2F" d="M68.7,48h-26c-6.1,0-11-4.9-11-11V11c0-6.1,4.9-11,11-11h26c6.1,0,11,4.9,11,11v26
	C79.7,43.1,74.7,48,68.7,48z M42.7,3c-4.4,0-8,3.6-8,8v26c0,4.4,3.6,8,8,8h26c4.4,0,8-3.6,8-8V11c0-4.4-3.6-8-8-8H42.7z"/>
<path fill="#2E2E2F" d="M110.9,38c-0.8,0-1.5-0.7-1.5-1.5c0-10.8-4.5-10.9-8-11c-5.7-0.2-23,0-23.2,0c0,0,0,0,0,0
	c-0.8,0-1.5-0.7-1.5-1.5c0-0.8,0.7-1.5,1.5-1.5c0.2,0,17.5-0.2,23.3,0c3.6,0.1,11,0.3,11,14C112.4,37.3,111.8,38,110.9,38z"/>
<path fill="#2E2E2F" d="M33.2,26c-0.2,0-0.4,0-0.6-0.1c-22.4-9.2-30-2.5-30.1-2.5c-0.6,0.6-1.6,0.5-2.1-0.1
	c-0.6-0.6-0.5-1.6,0.1-2.1c0.4-0.3,9.2-8,33.3,1.9c0.8,0.3,1.1,1.2,0.8,2C34.3,25.6,33.8,26,33.2,26z"/>
</svg>
