<?xml version="1.0" encoding="utf-8"?>
<!-- Generator: Adobe Illustrator 18.1.1, SVG Export Plug-In . SVG Version: 6.00 Build 0)  -->
<svg version="1.1" id="Layer_1" xmlns="http://www.w3.org/2000/svg" xmlns:xlink="http://www.w3.org/1999/xlink" x="0px" y="0px"
	 viewBox="0 0 128 47.7" enable-background="new 0 0 128 47.7" xml:space="preserve">
<path fill="#F15A29" d="M83.9,7.5L67.3,1.9c-8.5-2.9-17.9-2.5-26.2,1L29.9,7.7c-2.5,1.1-5.1,1.9-7.8,2.4L0,14.4v26.3l22.2,2.1
	c3.1,0.3,6.3,0.8,9.3,1.5l6.8,1.6c10.4,2.4,21.2,2.6,31.6,0.4l12.3-2.5c6.6-1.4,11.4-7.2,11.4-13.9V21C93.6,14.9,89.7,9.5,83.9,7.5z
	 M54.1,43.3c-11.4,0-20.6-9.2-20.6-20.6S42.7,2,54.1,2c11.4,0,20.6,9.2,20.6,20.6S65.5,43.3,54.1,43.3z"/>
<path fill="#2E2E2F" d="M126,25.9H90.3c-1.1,0-2-0.9-2-2v0c0-1.1,0.9-2,2-2H126c1.1,0,2,0.9,2,2v0C128,25,127.1,25.9,126,25.9z"/>
</svg>
